<?xml version="1.0" standalone="no"?><!DOCTYPE svg PUBLIC "-//W3C//DTD SVG 1.1//EN" "http://www.w3.org/Graphics/SVG/1.1/DTD/svg11.dtd"><svg t="1534489763290" class="icon" style="" viewBox="0 0 1024 1024" version="1.1" xmlns="http://www.w3.org/2000/svg" p-id="561" xmlns:xlink="http://www.w3.org/1999/xlink" width="200" height="200"><defs><style type="text/css"></style></defs><path d="M880.555 699.733a25.6 25.6 0 0 0-25.6 25.6v148.31a97.792 97.792 0 0 1-96.427 99.157H170.752a98.987 98.987 0 0 1-98.816-98.816V150.016A98.987 98.987 0 0 1 170.752 51.2h587.776a97.792 97.792 0 0 1 96.427 98.816V412.16a25.6 25.6 0 0 0 51.2 0V150.016A148.992 148.992 0 0 0 758.528 0H170.752A150.187 150.187 0 0 0 20.736 150.016v723.968A150.187 150.187 0 0 0 170.752 1024h587.776a148.992 148.992 0 0 0 147.627-150.016v-148.31a25.6 25.6 0 0 0-25.6-25.94zM669.269 274.261h-409.6a25.6 25.6 0 0 0 0 51.2h409.6a25.6 25.6 0 0 0 0-51.2z m0 205.824h-409.6a25.6 25.6 0 0 0 0 51.2h409.6a25.6 25.6 0 0 0 0-51.2z m324.267-82.944a25.6 25.6 0 0 0-36.01 3.755L571.818 878.763a25.6 25.6 0 0 0 39.936 32.085L997.29 432.981a25.6 25.6 0 0 0-3.755-35.84z" p-id="562" fill="#1296db"></path></svg>